<?xml version="1.0" encoding="UTF-8"?>
<svg xmlns="http://www.w3.org/2000/svg" xmlns:xlink="http://www.w3.org/1999/xlink" width="128px" height="128px" viewBox="0 0 128 128" version="1.1">
<g id="surface1">
<path style=" stroke:none;fill-rule:nonzero;fill:rgb(21.176471%,74.117649%,96.862745%);fill-opacity:1;" d="M 17.601562 16.398438 L 16.800781 17 L 16.398438 17.800781 L 16 19 L 16 109 L 17 111.199219 L 18.601562 112 L 19.601562 112 L 20.199219 111.601562 L 110.398438 66.601562 L 110.199219 66.800781 L 111.800781 65.398438 L 111.800781 65 L 112 63 L 111.199219 62 L 110.398438 61.601562 L 20.199219 16.398438 L 19.601562 16 L 19.199219 16 L 17.601562 16.398438 M 8 109.199219 L 8 19 C 8 16.464844 8.800781 14.199219 10.398438 12.199219 L 10.601562 12.199219 C 12.066406 10.199219 13.933594 9 16.199219 8.601562 L 17.199219 8.398438 L 23.601562 9 L 23.800781 9.199219 L 114 54.398438 L 114.199219 54.398438 C 116.601562 55.464844 118.332031 57.265625 119.398438 59.800781 C 120.332031 62.601562 120.332031 65.332031 119.398438 68 L 119.398438 67.800781 C 118.332031 70.464844 116.535156 72.464844 114 73.800781 L 23.800781 118.800781 L 23.800781 119 L 16.800781 119.800781 C 14.265625 119.265625 12.132812 117.933594 10.398438 115.800781 C 8.800781 113.667969 8 111.464844 8 109.199219 "/>
<path style=" stroke:none;fill-rule:nonzero;fill:rgb(10.980392%,62.352943%,84.313726%);fill-opacity:1;" d="M 17.601562 16.398438 L 19.199219 16 L 19.601562 16 L 20.199219 16.398438 L 110.398438 61.601562 L 111.199219 62 L 112 63 L 111.800781 65 L 111.800781 65.398438 L 110.199219 66.800781 L 110.398438 66.601562 L 20.199219 111.601562 L 19.601562 112 L 18.601562 112 L 17 111.199219 L 16 109 L 16 19 L 16.398438 17.800781 L 16.800781 17 L 17.601562 16.398438 "/>
<path style=" stroke:none;fill-rule:nonzero;fill:rgb(8.627451%,49.019608%,65.882355%);fill-opacity:1;" d="M 27.398438 2 L 117.601562 47.199219 C 121.867188 49.199219 124.933594 52.464844 126.800781 57 C 128.535156 61.667969 128.535156 66.265625 126.800781 70.800781 C 124.933594 75.332031 121.867188 78.734375 117.601562 81 L 27.398438 126 C 23.535156 128 19.398438 128.535156 15 127.601562 C 10.734375 126.667969 7.132812 124.464844 4.199219 121 C 1.398438 117.265625 0 113.332031 0 109.199219 L 0 19 C 0 14.601562 1.398438 10.667969 4.199219 7.199219 C 7.132812 3.464844 10.734375 1.265625 15 0.601562 C 19.398438 -0.601562 23.535156 -0.132812 27.398438 2 M 8 109.199219 C 8 111.464844 8.800781 113.667969 10.398438 115.800781 C 12.132812 117.933594 14.265625 119.265625 16.800781 119.800781 L 23.800781 119 L 23.800781 118.800781 L 114 73.800781 C 116.535156 72.464844 118.332031 70.464844 119.398438 67.800781 L 119.398438 68 C 120.332031 65.332031 120.332031 62.601562 119.398438 59.800781 C 118.332031 57.265625 116.601562 55.464844 114.199219 54.398438 L 114 54.398438 L 23.800781 9.199219 L 23.601562 9 L 17.199219 8.398438 L 16.199219 8.601562 C 13.933594 9 12.066406 10.199219 10.601562 12.199219 L 10.398438 12.199219 C 8.800781 14.199219 8 16.464844 8 19 L 8 109.199219 "/>
</g>
</svg>
